<?xml version="1.0" standalone="no"?>
<!DOCTYPE svg PUBLIC "-//W3C//DTD SVG 20010904//EN"
 "http://www.w3.org/TR/2001/REC-SVG-20010904/DTD/svg10.dtd">
<svg version="1.0" xmlns="http://www.w3.org/2000/svg"
 width="260.000000pt" height="260.000000pt" viewBox="0 0 260.000000 260.000000"
 preserveAspectRatio="xMidYMid meet">
<metadata>
Created by potrace 1.11, written by Peter Selinger 2001-2013
</metadata>
<g transform="translate(0.000000,260.000000) scale(0.100000,-0.100000)"
fill="#000000" stroke="none">
<path d="M1227 2594 c-1 -1 -32 -5 -68 -8 -36 -3 -88 -10 -115 -16 -27 -7 -59
-14 -71 -16 -35 -7 -194 -64 -238 -86 -133 -67 -246 -149 -355 -258 -116 -116
-184 -212 -255 -363 -40 -84 -91 -234 -101 -297 -2 -14 -8 -52 -13 -85 -10
-62 -7 -321 3 -365 4 -14 9 -41 12 -60 3 -19 8 -44 11 -55 4 -11 8 -26 10 -32
9 -37 10 -39 55 -156 156 -399 558 -714 998 -781 79 -12 338 -14 385 -3 26 6
103 19 110 18 28 -3 335 123 343 142 2 4 8 7 14 7 9 0 95 57 152 100 11 8 61
56 112 106 152 150 271 351 327 554 26 94 29 107 43 205 10 62 10 257 0 310
-4 22 -9 54 -12 70 -49 292 -214 573 -456 778 -31 26 -61 47 -67 47 -7 0 -14
7 -17 15 -4 8 -11 15 -16 15 -5 0 -22 9 -37 20 -98 69 -314 151 -466 176 -22
3 -51 8 -65 11 -25 4 -219 11 -223 7z"/>
</g>
</svg>
